<svg width="246" height="185" viewBox="0 0 246 185" fill="none" xmlns="http://www.w3.org/2000/svg">
<path fill-rule="evenodd" clip-rule="evenodd" d="M198.591 169.899L244.463 28.4238C248.062 17.3316 241.991 5.39398 230.922 1.79289C219.853 -1.80819 207.941 4.27031 204.347 15.3625L158.475 156.832C154.876 167.924 160.947 179.862 172.016 183.463C183.085 187.069 194.998 180.991 198.591 169.899Z" fill="url(#paint0_linear_3102_543)"/>
<path fill-rule="evenodd" clip-rule="evenodd" d="M198.591 169.899L244.463 28.4238C248.062 17.3316 241.991 5.39398 230.922 1.79289C219.853 -1.80819 207.941 4.27031 204.347 15.3625L158.475 156.832C154.876 167.924 160.947 179.862 172.016 183.463C183.085 187.069 194.998 180.991 198.591 169.899Z" fill="url(#paint1_linear_3102_543)"/>
<path fill-rule="evenodd" clip-rule="evenodd" d="M198.591 169.899L244.463 28.4238C248.062 17.3316 241.991 5.39398 230.922 1.79289C219.853 -1.80819 207.941 4.27031 204.347 15.3625L158.475 156.832C154.876 167.924 160.947 179.862 172.016 183.463C183.085 187.069 194.998 180.991 198.591 169.899Z" fill="url(#paint2_linear_3102_543)" fill-opacity="0.8"/>
<path fill-rule="evenodd" clip-rule="evenodd" d="M198.591 169.899L244.463 28.4238C248.062 17.3316 241.991 5.39398 230.922 1.79289C219.853 -1.80819 207.941 4.27031 204.347 15.3625L158.475 156.832C154.876 167.924 160.947 179.862 172.016 183.463C183.085 187.069 194.998 180.991 198.591 169.899Z" fill="url(#paint3_radial_3102_543)"/>
<path fill-rule="evenodd" clip-rule="evenodd" d="M198.591 169.899L244.463 28.4238C248.062 17.3316 241.991 5.39398 230.922 1.79289C219.853 -1.80819 207.941 4.27031 204.347 15.3625L158.475 156.832C154.876 167.924 160.947 179.862 172.016 183.463C183.085 187.069 194.998 180.991 198.591 169.899Z" fill="url(#paint4_radial_3102_543)"/>
<path fill-rule="evenodd" clip-rule="evenodd" d="M198.591 169.899L244.463 28.4238C248.062 17.3316 241.991 5.39398 230.922 1.79289C219.853 -1.80819 207.941 4.27031 204.347 15.3625L158.475 156.832C154.876 167.924 160.947 179.862 172.016 183.463C183.085 187.069 194.998 180.991 198.591 169.899Z" fill="url(#paint5_radial_3102_543)"/>
<path fill-rule="evenodd" clip-rule="evenodd" d="M122.994 86.0459C128.2 86.0459 132.039 89.1012 135.312 92.9324C138.949 97.197 141.853 102.484 144.32 108.097C155.411 133.293 157.488 164.815 157.488 164.815C158.283 176.453 168.359 185.25 179.973 184.452C191.586 183.655 200.364 173.553 199.569 161.92C199.569 161.92 196.782 122.549 182.915 91.0382C171.023 64.0167 150.888 43.7747 122.999 43.7747C95.1108 43.7747 74.9753 64.0167 63.0841 91.0382C49.2119 122.549 46.43 161.92 46.43 161.92C45.6344 173.558 54.4126 183.655 66.0262 184.452C77.6397 185.25 87.7155 176.453 88.5111 164.815C88.5111 164.815 90.5882 133.299 101.678 108.097C104.145 102.489 107.05 97.197 110.686 92.9324C113.954 89.1012 117.793 86.0459 122.994 86.0459Z" fill="#E63CFE"/>
<path fill-rule="evenodd" clip-rule="evenodd" d="M122.994 86.0459C128.2 86.0459 132.039 89.1012 135.312 92.9324C138.949 97.197 141.853 102.484 144.32 108.097C155.411 133.293 157.488 164.815 157.488 164.815C158.283 176.453 168.359 185.25 179.973 184.452C191.586 183.655 200.364 173.553 199.569 161.92C199.569 161.92 196.782 122.549 182.915 91.0382C171.023 64.0167 150.888 43.7747 122.999 43.7747C95.1108 43.7747 74.9753 64.0167 63.0841 91.0382C49.2119 122.549 46.43 161.92 46.43 161.92C45.6344 173.558 54.4126 183.655 66.0262 184.452C77.6397 185.25 87.7155 176.453 88.5111 164.815C88.5111 164.815 90.5882 133.299 101.678 108.097C104.145 102.489 107.05 97.197 110.686 92.9324C113.954 89.1012 117.793 86.0459 122.994 86.0459Z" fill="url(#paint6_radial_3102_543)"/>
<path fill-rule="evenodd" clip-rule="evenodd" d="M122.994 86.0459C128.2 86.0459 132.039 89.1012 135.312 92.9324C138.949 97.197 141.853 102.484 144.32 108.097C155.411 133.293 157.488 164.815 157.488 164.815C158.283 176.453 168.359 185.25 179.973 184.452C191.586 183.655 200.364 173.553 199.569 161.92C199.569 161.92 196.782 122.549 182.915 91.0382C171.023 64.0167 150.888 43.7747 122.999 43.7747C95.1108 43.7747 74.9753 64.0167 63.0841 91.0382C49.2119 122.549 46.43 161.92 46.43 161.92C45.6344 173.558 54.4126 183.655 66.0262 184.452C77.6397 185.25 87.7155 176.453 88.5111 164.815C88.5111 164.815 90.5882 133.299 101.678 108.097C104.145 102.489 107.05 97.197 110.686 92.9324C113.954 89.1012 117.793 86.0459 122.994 86.0459Z" fill="url(#paint7_radial_3102_543)"/>
<path fill-rule="evenodd" clip-rule="evenodd" d="M122.994 86.0459C128.2 86.0459 132.039 89.1012 135.312 92.9324C138.949 97.197 141.853 102.484 144.32 108.097C155.411 133.293 157.488 164.815 157.488 164.815C158.283 176.453 168.359 185.25 179.973 184.452C191.586 183.655 200.364 173.553 199.569 161.92C199.569 161.92 196.782 122.549 182.915 91.0382C171.023 64.0167 150.888 43.7747 122.999 43.7747C95.1108 43.7747 74.9753 64.0167 63.0841 91.0382C49.2119 122.549 46.43 161.92 46.43 161.92C45.6344 173.558 54.4126 183.655 66.0262 184.452C77.6397 185.25 87.7155 176.453 88.5111 164.815C88.5111 164.815 90.5882 133.299 101.678 108.097C104.145 102.489 107.05 97.197 110.686 92.9324C113.954 89.1012 117.793 86.0459 122.994 86.0459Z" fill="url(#paint8_radial_3102_543)"/>
<path fill-rule="evenodd" clip-rule="evenodd" d="M122.994 86.0459C128.2 86.0459 132.039 89.1012 135.312 92.9324C138.949 97.197 141.853 102.484 144.32 108.097C155.411 133.293 157.488 164.815 157.488 164.815C158.283 176.453 168.359 185.25 179.973 184.452C191.586 183.655 200.364 173.553 199.569 161.92C199.569 161.92 196.782 122.549 182.915 91.0382C171.023 64.0167 150.888 43.7747 122.999 43.7747C95.1108 43.7747 74.9753 64.0167 63.0841 91.0382C49.2119 122.549 46.43 161.92 46.43 161.92C45.6344 173.558 54.4126 183.655 66.0262 184.452C77.6397 185.25 87.7155 176.453 88.5111 164.815C88.5111 164.815 90.5882 133.299 101.678 108.097C104.145 102.489 107.05 97.197 110.686 92.9324C113.954 89.1012 117.793 86.0459 122.994 86.0459Z" fill="url(#paint9_radial_3102_543)"/>
<path fill-rule="evenodd" clip-rule="evenodd" d="M122.994 86.0459C128.2 86.0459 132.039 89.1012 135.312 92.9324C138.949 97.197 141.853 102.484 144.32 108.097C155.411 133.293 157.488 164.815 157.488 164.815C158.283 176.453 168.359 185.25 179.973 184.452C191.586 183.655 200.364 173.553 199.569 161.92C199.569 161.92 196.782 122.549 182.915 91.0382C171.023 64.0167 150.888 43.7747 122.999 43.7747C95.1108 43.7747 74.9753 64.0167 63.0841 91.0382C49.2119 122.549 46.43 161.92 46.43 161.92C45.6344 173.558 54.4126 183.655 66.0262 184.452C77.6397 185.25 87.7155 176.453 88.5111 164.815C88.5111 164.815 90.5882 133.299 101.678 108.097C104.145 102.489 107.05 97.197 110.686 92.9324C113.954 89.1012 117.793 86.0459 122.994 86.0459Z" fill="url(#paint10_radial_3102_543)"/>
<path fill-rule="evenodd" clip-rule="evenodd" d="M122.994 86.0459C128.2 86.0459 132.039 89.1012 135.312 92.9324C138.949 97.197 141.853 102.484 144.32 108.097C155.411 133.293 157.488 164.815 157.488 164.815C158.283 176.453 168.359 185.25 179.973 184.452C191.586 183.655 200.364 173.553 199.569 161.92C199.569 161.92 196.782 122.549 182.915 91.0382C171.023 64.0167 150.888 43.7747 122.999 43.7747C95.1108 43.7747 74.9753 64.0167 63.0841 91.0382C49.2119 122.549 46.43 161.92 46.43 161.92C45.6344 173.558 54.4126 183.655 66.0262 184.452C77.6397 185.25 87.7155 176.453 88.5111 164.815C88.5111 164.815 90.5882 133.299 101.678 108.097C104.145 102.489 107.05 97.197 110.686 92.9324C113.954 89.1012 117.793 86.0459 122.994 86.0459Z" fill="url(#paint11_radial_3102_543)"/>
<path fill-rule="evenodd" clip-rule="evenodd" d="M122.994 86.0459C128.2 86.0459 132.039 89.1012 135.312 92.9324C138.949 97.197 141.853 102.484 144.32 108.097C155.411 133.293 157.488 164.815 157.488 164.815C158.283 176.453 168.359 185.25 179.973 184.452C191.586 183.655 200.364 173.553 199.569 161.92C199.569 161.92 196.782 122.549 182.915 91.0382C171.023 64.0167 150.888 43.7747 122.999 43.7747C95.1108 43.7747 74.9753 64.0167 63.0841 91.0382C49.2119 122.549 46.43 161.92 46.43 161.92C45.6344 173.558 54.4126 183.655 66.0262 184.452C77.6397 185.25 87.7155 176.453 88.5111 164.815C88.5111 164.815 90.5882 133.299 101.678 108.097C104.145 102.489 107.05 97.197 110.686 92.9324C113.954 89.1012 117.793 86.0459 122.994 86.0459Z" fill="url(#paint12_radial_3102_543)"/>
<path fill-rule="evenodd" clip-rule="evenodd" d="M122.994 86.0459C128.2 86.0459 132.039 89.1012 135.312 92.9324C138.949 97.197 141.853 102.484 144.32 108.097C155.411 133.293 157.488 164.815 157.488 164.815C158.283 176.453 168.359 185.25 179.973 184.452C191.586 183.655 200.364 173.553 199.569 161.92C199.569 161.92 196.782 122.549 182.915 91.0382C171.023 64.0167 150.888 43.7747 122.999 43.7747C95.1108 43.7747 74.9753 64.0167 63.0841 91.0382C49.2119 122.549 46.43 161.92 46.43 161.92C45.6344 173.558 54.4126 183.655 66.0262 184.452C77.6397 185.25 87.7155 176.453 88.5111 164.815C88.5111 164.815 90.5882 133.299 101.678 108.097C104.145 102.489 107.05 97.197 110.686 92.9324C113.954 89.1012 117.793 86.0459 122.994 86.0459Z" fill="url(#paint13_radial_3102_543)"/>
<path fill-rule="evenodd" clip-rule="evenodd" d="M87.5253 156.832L41.6531 15.357C38.0595 4.26483 26.1523 -1.81902 15.078 1.78742C4.0091 5.39385 -2.06199 17.3261 1.53688 28.4183L47.4091 169.893C51.008 180.985 62.9152 187.069 73.9842 183.463C85.0531 179.856 91.1242 167.924 87.5253 156.832Z" fill="url(#paint14_linear_3102_543)"/>
<path fill-rule="evenodd" clip-rule="evenodd" d="M87.5253 156.832L41.6531 15.357C38.0595 4.26483 26.1523 -1.81902 15.078 1.78742C4.0091 5.39385 -2.06199 17.3261 1.53688 28.4183L47.4091 169.893C51.008 180.985 62.9152 187.069 73.9842 183.463C85.0531 179.856 91.1242 167.924 87.5253 156.832Z" fill="url(#paint15_radial_3102_543)"/>
<path fill-rule="evenodd" clip-rule="evenodd" d="M87.5253 156.832L41.6531 15.357C38.0595 4.26483 26.1523 -1.81902 15.078 1.78742C4.0091 5.39385 -2.06199 17.3261 1.53688 28.4183L47.4091 169.893C51.008 180.985 62.9152 187.069 73.9842 183.463C85.0531 179.856 91.1242 167.924 87.5253 156.832Z" fill="url(#paint16_linear_3102_543)"/>
<path fill-rule="evenodd" clip-rule="evenodd" d="M87.5253 156.832L41.6531 15.357C38.0595 4.26483 26.1523 -1.81902 15.078 1.78742C4.0091 5.39385 -2.06199 17.3261 1.53688 28.4183L47.4091 169.893C51.008 180.985 62.9152 187.069 73.9842 183.463C85.0531 179.856 91.1242 167.924 87.5253 156.832Z" fill="url(#paint17_radial_3102_543)"/>
<path fill-rule="evenodd" clip-rule="evenodd" d="M87.5253 156.832L41.6531 15.357C38.0595 4.26483 26.1523 -1.81902 15.078 1.78742C4.0091 5.39385 -2.06199 17.3261 1.53688 28.4183L47.4091 169.893C51.008 180.985 62.9152 187.069 73.9842 183.463C85.0531 179.856 91.1242 167.924 87.5253 156.832Z" fill="url(#paint18_radial_3102_543)"/>
<defs>
<linearGradient id="paint0_linear_3102_543" x1="268.998" y1="-45.5954" x2="200.306" y2="176.523" gradientUnits="userSpaceOnUse">
<stop stop-color="#4A4EFA"/>
<stop offset="0.548576" stop-color="#E63CFE"/>
</linearGradient>
<linearGradient id="paint1_linear_3102_543" x1="182.725" y1="82.4493" x2="221.638" y2="95.0455" gradientUnits="userSpaceOnUse">
<stop offset="0.160046" stop-color="#4A4EFA"/>
<stop offset="0.946031" stop-color="#4A4EFA" stop-opacity="0"/>
</linearGradient>
<linearGradient id="paint2_linear_3102_543" x1="188.622" y1="63.7726" x2="213.072" y2="71.5928" gradientUnits="userSpaceOnUse">
<stop stop-color="#39FBBB"/>
<stop offset="1" stop-color="#39FBBB" stop-opacity="0"/>
</linearGradient>
<radialGradient id="paint3_radial_3102_543" cx="0" cy="0" r="1" gradientUnits="userSpaceOnUse" gradientTransform="translate(179.587 115.507) rotate(-64.1652) scale(127.494 127.493)">
<stop offset="0.832168" stop-color="#4A4EFA" stop-opacity="0"/>
<stop offset="1" stop-color="#4A4EFA" stop-opacity="0.75"/>
</radialGradient>
<radialGradient id="paint4_radial_3102_543" cx="0" cy="0" r="1" gradientUnits="userSpaceOnUse" gradientTransform="translate(177.115 107.092) scale(28.4242 60.7891)">
<stop offset="0.169047" stop-color="#11417A"/>
<stop offset="0.926198" stop-color="#4069D4" stop-opacity="0"/>
</radialGradient>
<radialGradient id="paint5_radial_3102_543" cx="0" cy="0" r="1" gradientUnits="userSpaceOnUse" gradientTransform="translate(210.016 184.502) rotate(-90) scale(94.017 45.0586)">
<stop offset="0.34895" stop-color="#E63CFE"/>
<stop offset="1" stop-color="#E63CFE" stop-opacity="0"/>
</radialGradient>
<radialGradient id="paint6_radial_3102_543" cx="0" cy="0" r="1" gradientUnits="userSpaceOnUse" gradientTransform="translate(115.851 117.978) rotate(-85.7675) scale(96.8652 86.0088)">
<stop stop-color="#39FBBB" stop-opacity="0.5"/>
<stop offset="0.688731" stop-color="#39FBBB"/>
<stop offset="1" stop-color="#39FBBB" stop-opacity="0"/>
</radialGradient>
<radialGradient id="paint7_radial_3102_543" cx="0" cy="0" r="1" gradientUnits="userSpaceOnUse" gradientTransform="translate(253.861 172.515) rotate(-122.629) scale(232.221 56.4955)">
<stop stop-color="#E63CFE"/>
<stop offset="1" stop-color="#E63CFE" stop-opacity="0"/>
</radialGradient>
<radialGradient id="paint8_radial_3102_543" cx="0" cy="0" r="1" gradientUnits="userSpaceOnUse" gradientTransform="translate(119.7 147.875) rotate(-85.0199) scale(104.495 89.8863)">
<stop offset="0.556793" stop-color="#4A4EFA"/>
<stop offset="0.934777" stop-color="#4A4EFA" stop-opacity="0"/>
</radialGradient>
<radialGradient id="paint9_radial_3102_543" cx="0" cy="0" r="1" gradientUnits="userSpaceOnUse" gradientTransform="translate(91.3643 179.502) rotate(-68.6369) scale(109.126 65.1232)">
<stop offset="0.61345" stop-color="#E63CFE"/>
<stop offset="1" stop-color="#E63CFE" stop-opacity="0"/>
</radialGradient>
<radialGradient id="paint10_radial_3102_543" cx="0" cy="0" r="1" gradientUnits="userSpaceOnUse" gradientTransform="translate(196.95 105.6) rotate(176.233) scale(135.493 342.53)">
<stop offset="0.813918" stop-color="#4A98D0" stop-opacity="0"/>
<stop offset="0.972647" stop-color="#11417A"/>
</radialGradient>
<radialGradient id="paint11_radial_3102_543" cx="0" cy="0" r="1" gradientUnits="userSpaceOnUse" gradientTransform="translate(83.2269 184.502) rotate(-90) scale(97.1075 80.5718)">
<stop offset="0.457769" stop-color="#FFAE3C"/>
<stop offset="1" stop-color="#FFAE3C" stop-opacity="0"/>
</radialGradient>
<radialGradient id="paint12_radial_3102_543" cx="0" cy="0" r="1" gradientUnits="userSpaceOnUse" gradientTransform="translate(200.978 184.502) rotate(-90) scale(87.529 87.528)">
<stop offset="0.191715" stop-color="#E63CFE"/>
<stop offset="1" stop-color="#E63CFE" stop-opacity="0"/>
</radialGradient>
<radialGradient id="paint13_radial_3102_543" cx="0" cy="0" r="1" gradientUnits="userSpaceOnUse" gradientTransform="translate(149.628 184.502) rotate(-90) scale(65.8652 31.287)">
<stop offset="0.173611" stop-color="#FFAE3C"/>
<stop offset="1" stop-color="#FFAE3C" stop-opacity="0"/>
</radialGradient>
<linearGradient id="paint14_linear_3102_543" x1="-6.70741" y1="9.57814" x2="52.5199" y2="193.841" gradientUnits="userSpaceOnUse">
<stop offset="0.169527" stop-color="#E63CFE"/>
<stop offset="0.708644" stop-color="#FFAE3C"/>
</linearGradient>
<radialGradient id="paint15_radial_3102_543" cx="0" cy="0" r="1" gradientUnits="userSpaceOnUse" gradientTransform="translate(41.7769 56.9106) rotate(161.042) scale(29.5497 144.294)">
<stop offset="0.120383" stop-color="#4A4EFA"/>
<stop offset="1" stop-color="#4A4EFA" stop-opacity="0"/>
</radialGradient>
<linearGradient id="paint16_linear_3102_543" x1="67.7655" y1="95.7003" x2="59.4714" y2="98.4152" gradientUnits="userSpaceOnUse">
<stop stop-color="#E63CFE" stop-opacity="0.33"/>
<stop offset="1" stop-color="#E63CFE" stop-opacity="0"/>
</linearGradient>
<radialGradient id="paint17_radial_3102_543" cx="0" cy="0" r="1" gradientUnits="userSpaceOnUse" gradientTransform="translate(88.5616 184.502) rotate(-90) scale(94.9397 103.714)">
<stop offset="0.465389" stop-color="#FFAE3C"/>
<stop offset="0.92565" stop-color="#FFAE3C" stop-opacity="0"/>
</radialGradient>
<radialGradient id="paint18_radial_3102_543" cx="0" cy="0" r="1" gradientUnits="userSpaceOnUse" gradientTransform="translate(88.5616 184.502) rotate(-90) scale(207.732 207.73)">
<stop offset="0.843756" stop-color="#E63CFE" stop-opacity="0"/>
<stop offset="1" stop-color="#E63CFE"/>
</radialGradient>
</defs>
</svg>
