<svg width="40" height="40" viewBox="0 0 40 40" fill="none" xmlns="http://www.w3.org/2000/svg">
<rect width="40" height="40" rx="20" fill="black"/>
<path fill-rule="evenodd" clip-rule="evenodd" d="M11.0132 17.1513C11 17.6902 11 18.3021 11 19V21C11 23.8284 11 25.2426 11.8787 26.1213C12.7574 27 14.1716 27 17 27H23C25.8284 27 27.2426 27 28.1213 26.1213C29 25.2426 29 23.8284 29 21V19C29 18.3021 29 17.6902 28.9868 17.1513L20.9713 21.6044C20.3672 21.9399 19.6328 21.9399 19.0287 21.6044L11.0132 17.1513ZM11.243 15.0297C11.3258 15.0505 11.4074 15.0824 11.4856 15.1258L20 19.856L28.5144 15.1258C28.5926 15.0824 28.6742 15.0505 28.757 15.0297C28.6271 14.5562 28.4276 14.1849 28.1213 13.8787C27.2426 13 25.8284 13 23 13H17C14.1716 13 12.7574 13 11.8787 13.8787C11.5724 14.1849 11.3729 14.5562 11.243 15.0297Z" fill="white"/>
</svg>
