<?xml version="1.0" encoding="UTF-8" standalone="no"?>
<svg xmlns="http://www.w3.org/2000/svg" xmlns:xlink="http://www.w3.org/1999/xlink" version="1.1" width="100%" height="100%" viewBox="0 0 1000 1000">
  <polygon points="-389.6830379962921,-500.0000596046448 -394.76141333580017,-500.0 -258.121132850647,268.6016261577606 -255.33324480056763,274.8960852622986 -249.70106780529022,279.37498688697815 -242.6343709230423,280.73275089263916 -235.7434332370758,278.6598801612854 -230.8214157819748,273.8467752933502 -10.971804149448872,-80.29007166624069 -9.657315909862518,-81.9939523935318 -8.123000152409077,-83.31448584794998 -6.353919859975576,-84.29849147796631 -4.422754980623722,-84.90554988384247 -2.2818336728960276,-85.12365072965622 2.2818378638476133,-85.12365072965622 4.422756843268871,-84.90554988384247 6.353924050927162,-84.29849147796631 8.12300480902195,-83.31448584794998 9.657316841185093,-81.9939523935318 10.97180601209402,-80.29007166624069 230.8214008808136,273.84674549102783 235.7434183359146,278.6598801612854 242.6343709230423,280.73275089263916 249.70108270645142,279.37498688697815 255.33321499824524,274.8960852622986 258.121132850647,268.6016261577606 394.76141333580017,-500.0 389.6830081939697,-500.0 253.30430269241333,267.1303451061249 251.2592375278473,271.7475891113281 247.5508153438568,274.6966779232025 242.89782345294952,275.5906581878662 238.36053907871246,274.2258310317993 234.75006222724915,270.6952095031738 13.40280007570982,-85.36721020936966 8.58729425817728,-88.8376533985138 2.7925269678235054,-90.12365341186523 -2.535856096073985,-90.12364596128464 -8.111998438835144,-89.04203027486801 -14.810757711529732,-83.58611166477203 -234.75004732608795,270.6952393054962 -238.36055397987366,274.2258310317993 -242.89782345294952,275.5906581878662 -247.550830245018,274.6966779232025 -251.25926733016968,271.7475891113281 -253.30430269241333,267.1303451061249 " fill="#ffffff" fill-opacity="1.0" stroke-opacity="1.0"/>
  <polygon points="283.35946798324585,432.5248897075653 282.5218439102173,431.83669447898865 281.561017036438,431.3768446445465 280.51137924194336,431.18396401405334 278.4283757209778,431.42518401145935 269.72779631614685,435.9763562679291 265.05059003829956,437.5080168247223 260.08349657058716,438.0932152271271 254.95651364326477,437.8271996974945 250.51265954971313,436.7145597934723 247.47927486896515,435.29000878334045 245.08722126483917,433.61517786979675 243.14293265342712,431.6200911998749 241.68291687965393,429.32114005088806 240.80732464790344,426.8045127391815 240.45908451080322,424.15651679039 240.7107949256897,421.2653338909149 241.111621260643,419.94497179985046 241.69743061065674,418.7334477901459 243.42648684978485,416.64931178092957 247.21628427505493,413.86476159095764 268.8656747341156,404.44687008857727 273.24575185775757,401.74391865730286 276.9927978515625,398.3810245990753 279.24904227256775,395.35579085350037 280.99745512008667,391.80365204811096 281.82452917099,389.097660779953 282.4121415615082,384.49451327323914 282.0010483264923,377.67595052719116 280.31793236732483,371.2337017059326 277.4643898010254,365.1493787765503 273.50330352783203,359.7373366355896 268.47392320632935,355.08522391319275 262.47426867485046,351.2910008430481 255.51694631576538,348.3794033527374 247.7906346321106,346.69628739356995 239.2396777868271,346.2791442871094 231.9970279932022,347.0197319984436 225.2984642982483,348.818302154541 219.26189959049225,351.6295254230499 213.25495839118958,355.808287858963 210.7575237751007,358.19146037101746 210.20826697349548,359.35163497924805 215.82163870334625,367.96513199806213 217.36720204353333,369.4804608821869 218.30305457115173,370.0702488422394 220.31503915786743,370.63610553741455 221.45676612854004,370.64728140830994 222.57158160209656,370.410293340683 223.66705536842346,369.90246176719666 229.48001325130463,365.68403244018555 234.89651083946228,363.0180060863495 238.61093819141388,362.1220290660858 244.66019868850708,361.80615425109863 249.7868835926056,362.44454979896545 253.12015414237976,363.560289144516 256.82973861694336,365.7608926296234 259.21425223350525,368.04383993148804 260.91912388801575,370.4741597175598 262.13347911834717,373.1858432292938 262.7936601638794,376.05148553848267 262.89743185043335,378.8639008998871 262.52564787864685,381.1624348163605 262.03593611717224,382.53360986709595 260.51726937294006,384.89824533462524 258.47870111465454,386.90781593322754 253.73107194900513,389.8164629936218 234.0359091758728,397.69211411476135 229.81363534927368,400.3473222255707 226.16329789161682,403.7141501903534 223.9469587802887,406.77931904792786 222.74509072303772,409.098356962204 221.88177704811096,411.7560684680939 221.20344638824463,416.35915637016296 221.52961790561676,423.61965775489807 223.40013086795807,430.593878030777 226.74578428268433,437.18603253364563 231.4559370279312,442.91189312934875 236.5560084581375,447.025328874588 243.71646344661713,450.77911019325256 249.59886074066162,452.6199400424957 257.4557662010193,453.6719620227814 266.0187780857086,453.43247056007385 272.5813388824463,452.1750509738922 279.5725166797638,449.41583275794983 285.6592535972595,445.6360638141632 289.1850471496582,442.60838627815247 289.78386521339417,441.48150086402893 " fill="#ffffff" fill-opacity="1.0" stroke-opacity="1.0"/>
</svg>
